<svg width="345" height="345" viewBox="0 0 345 345" fill="none" xmlns="http://www.w3.org/2000/svg">
<path fill-rule="evenodd" clip-rule="evenodd" d="M260.188 155.25C291.15 155.25 316.25 130.15 316.25 99.1875C316.25 68.225 291.15 43.125 260.188 43.125C229.225 43.125 204.125 68.225 204.125 99.1875C204.125 103.157 207.343 106.375 211.312 106.375C215.282 106.375 218.5 103.157 218.5 99.1875C218.5 76.1641 237.164 57.5 260.188 57.5C283.211 57.5 301.875 76.1641 301.875 99.1875C301.875 122.211 283.211 140.875 260.188 140.875C259.974 140.875 259.763 140.884 259.554 140.903C259.372 140.884 259.187 140.875 259 140.875H34.25C31.2124 140.875 28.75 143.337 28.75 146.375V149.75C28.75 152.788 31.2124 155.25 34.25 155.25H259C259.187 155.25 259.372 155.241 259.554 155.222C259.763 155.241 259.974 155.25 260.188 155.25ZM28.75 178.5C28.75 181.538 31.2124 184 34.25 184H204.125C222.385 184 237.188 198.803 237.188 217.062C237.188 235.322 222.385 250.125 204.125 250.125C200.155 250.125 196.938 253.343 196.938 257.312C196.938 261.282 200.155 264.5 204.125 264.5C230.324 264.5 251.562 243.262 251.562 217.062C251.562 193.912 234.979 174.634 213.043 170.462C212.197 169.932 211.197 169.625 210.125 169.625H204.125H34.25C31.2124 169.625 28.75 172.087 28.75 175.125V178.5ZM34.25 198.375C31.2124 198.375 28.75 200.837 28.75 203.875V207.25C28.75 210.288 31.2124 212.75 34.25 212.75H168.438C171.475 212.75 173.938 210.288 173.938 207.25V203.875C173.938 200.837 171.475 198.375 168.438 198.375H34.25Z" fill="white"/>
</svg>
